<?xml version="1.0" encoding="utf-8"?>
<!-- Svg Vector Icons : http://www.onlinewebfonts.com/icon -->
<!DOCTYPE svg PUBLIC "-//W3C//DTD SVG 1.1//EN" "http://www.w3.org/Graphics/SVG/1.1/DTD/svg11.dtd">
<svg version="1.1" xmlns="http://www.w3.org/2000/svg" xmlns:xlink="http://www.w3.org/1999/xlink" x="0px" y="0px" viewBox="0 0 1000 1000" enable-background="new 0 0 1000 1000" xml:space="preserve">
<metadata> Svg Vector Icons : http://www.onlinewebfonts.com/icon </metadata>
<g><path d="M640.6,770.1c0,0-147.6,65.6-177.1,134.5c0,0-42,105.1,108.8,69.9c0,0,343.3-50.7,407.9-416.5c0,0,9.8-20.6,9.8-34.7C975.8,577.3,889.8,648.4,640.6,770.1z"/><path d="M910.5,227.3C881.7,186.1,819.6,122,759.2,99.4c49.3,44.5-124.3,146.4-214.9,208.2c0,0-698.6,432.2-235.6,640.8c0,0-92.4-73.9,210.7-263.7c87-54.5,176-107,262.8-159.4c74-44.8,182.8-105.9,165.2-210.5C942.5,285.3,927.7,252,910.5,227.3z"/><path d="M953.7,321.2c-4.9-29.6-19.7-62.9-36.9-87.6c-11.6-16.6-28.6-36.9-48.8-56.7c17.4,17.8,32.2,35.6,42.5,50.5c17.2,24.7,32,58,36.9,87.6c17.6,104.6-91.2,165.6-165.2,210.5c-86.8,52.5-175.8,104.9-262.8,159.4C216.3,874.6,308.7,948.5,308.7,948.5c-44.8-20.2-78.7-42.5-103.5-66.3c36.3,6.9,54.7,44.4,103.5,66.3c0,0-77.3-61.1,225.8-250.9c87-54.5,171.3-103.5,258.1-156C866.6,496.8,971.2,425.8,953.7,321.2z"/><path d="M519.4,684.8c87-54.5,176-107,262.8-159.4c74-44.8,182.8-105.9,165.2-210.5c-4.9-29.6-19.7-62.9-36.9-87.6c-10.3-14.8-25.1-32.7-42.5-50.5c-29.8-29.4-66.4-57.7-102.5-71.1c49.3,44.5-124.3,146.4-214.9,208.2c0,0-559.1,345.9-345.3,568.2c24.8,23.8,58.7,46.1,103.5,66.3C308.7,948.5,216.3,874.6,519.4,684.8z"/><path d="M500.4,12.3c0,0-292.3-4.1-432.8,287.1c0,0-28,55.8-39.3,139.6l-0.1-0.2c-0.5,3-0.6,5.7-1.1,8.5c-0.1,1-0.2,1.9-0.3,2.9c-7.5,56.5-4.2,102.6,4.1,139.2c3.3,14.2,2.6,33.8,7,45.3c19.8,52.2,52.1,73.5,52.1,73.5c-84.9-89-16.3-203.8,3.3-230.3c33.6-50.2,112.2-119.9,218.7-198.5c0,0,64.5-47.2,133.1-92.2C624.7,69.5,565.8,9.9,500.4,12.3z"/><path d="M487.9,6.1c0,0-292.3-4.1-432.8,287.1c0,0-28,55.8-39.3,139.7l-0.1-0.2c-0.5,3-0.6,5.7-1.1,8.5c-0.1,1-0.2,1.9-0.3,2.9c-7.5,56.5-4.2,102.6,4.1,139.2c3.3,14.2,7.2,27.2,11.6,38.7c19.8,52.2,47.9,75.7,47.9,75.7c-84.8-89-16.7-199.4,2.9-225.9c33.6-50.2,112.2-119.9,218.7-198.5c0,0,64.5-47.2,133.1-92.2C612.2,63.2,553.2,3.6,487.9,6.1z"/><path d="M47.4,653.6c6.3,14.3,16.1,28.6,28.8,42.3C69.3,688,57.9,674.2,47.4,653.6z"/><path d="M77.5,697.2c-0.4-0.4-0.8-0.9-1.2-1.3C76.7,696.4,77.1,696.8,77.5,697.2z"/><path d="M18.3,570.7c-4.8-20.9-7.8-45.1-8.2-72.5c-0.5,32.6,2.7,60.9,8.2,85c3.3,14.2,7.2,27.2,11.6,38.7c19.8,52.2,47.9,75.7,47.9,75.7C58,676.9,46.1,655,40.4,633.2c-3.6-7.2-7.2-15.1-10.5-23.9C25.5,597.9,21.6,584.9,18.3,570.7z"/><path d="M721.2,376.6c234.5-142.3,38.1-277.2,38.1-277.2c49.3,44.5-124.3,146.4-214.9,208.2c0,0-692.6,428.5-241.3,638.2C30.8,785.6,721.2,376.6,721.2,376.6z"/><path d="M550.6,314c90.6-61.8,243.7-157.5,222.8-204.1c26.2,12.8,64.8,37.6,94.6,67c-30.9-31.6-70.2-63-108.8-77.4c49.3,44.5-124.3,146.4-214.9,208.2c0,0-569.7,352.5-339.1,574.5C-8.6,659.9,550.6,314,550.6,314z"/><path d="M498.5,86.7c-140,70-564.4,298.4-447.6,574.2c-41-80.4,12.8-166.2,29.8-189.2c33.6-50.2,112.2-119.9,218.7-198.5c0,0,64.5-47.2,133.1-92.2c36-23.6,62.3-44.9,81-63.8C527.6,101.9,527.4,76.2,498.5,86.7z"/><path d="M988.5,520.3c0-0.1,0-0.1,0.1-0.2C988.5,520.2,988.5,520.3,988.5,520.3z"/><path d="M647,780.1c0,0-147.6,65.6-177.1,134.5c0,0-16.6,44.3,9.8,62.3c-4.8-17.6-3.5-49.7-3.5-49.7c29.6-68.9,177.1-134.5,177.1-134.5c215.8-105.4,299.7-189.7,327.5-245.4c0.1-1.2,2.9-4.3,6.7-8.2c0.9-4.7,1.8-9.3,2.5-14.1l0-1.5C972.7,578,888.7,662,647,780.1z"/><path d="M653.3,792.6c0,0-147.6,65.6-177.1,134.5c0,0-41.8,91.3,112.5,60.5c0,0,331.7-43.8,396.3-409.6c0,0,5.1-40.6,5.1-54.7C975.8,577.3,902.5,671,653.3,792.6z"/><path d="M988.5,528.4c0,0.1,1.5-5.1,1.5-5.1c-22.9,221.5-250.3,357.4-250.3,357.4c-253.4,135.7-266.8,56.6-266.8,56.5c-5.6,22.8-6.2,74.8,115.8,50.4c0,0,331.7-43.8,396.3-409.6c0,0,5.1-40.6,5.1-54.7c-0.3,1-0.6,2-0.9,3.1C989,527.1,988.7,527.7,988.5,528.4z"/><path d="M71.2,691c-0.4-0.4-0.8-0.9-1.2-1.3C70.4,690.1,70.8,690.5,71.2,691z"/><path d="M986.3,534.8c0.8-2,1.4-3.9,2-5.8C987.7,530.9,987,532.9,986.3,534.8z"/><path d="M988.5,528.6c0,0.1-0.1,0.3-0.1,0.4C988.4,528.9,988.4,528.7,988.5,528.6L988.5,528.6z"/><path d="M653.3,792.6c0,0-76.3,33.9-130.1,78.6c-7.9,7.2-14,28,6.7,31.1c34.7,5.1,145.7-64.8,172.1-81.1c43.1-26.8,243-172.2,284.2-286.4C965.1,590.1,885.7,679.1,653.3,792.6z"/><path d="M487.9,6.1c0,0-292.3-4.1-432.8,287.1c0,0-28,55.8-39.3,139.7l-0.1-0.2c-0.5,3-0.6,5.7-1.1,8.5c-0.1,1-0.2,1.9-0.3,2.9c-7.5,56.5-4.2,102.6,4.1,139.2c3.3,14.2,7.2,27.2,11.6,38.7c19.8,52.2,47.9,75.7,47.9,75.7C58.5,677.4,50,649,41,629C-34.8,249.6,434.6,60.8,434.6,60.8s124.9-54.5,115.2,2.7C561.3,24.1,525.7,4.7,487.9,6.1z"/><path d="M47.4,653.6c-3.9-7.6-7.7-16-11.3-25.4c-4.4-11.5-8.3-24.4-11.6-38.7c-8.3-36.6-11.6-82.7-4.1-139.2c0.1-1,0.2-1.9,0.3-2.9c0.4-2.8,0.6-5.5,1-8.5l0.1,0.2c11.3-83.9,39.3-139.6,39.3-139.6C201.8,8.2,494.1,12.3,494.1,12.3c19.2-0.7,37.9,4,50.1,13.9c-11.3-14.2-33.4-21-56.4-20.2c0,0-292.3-4.1-432.8,287.1c0,0-28,55.8-39.3,139.7l-0.1-0.2c-0.5,3-0.6,5.7-1.1,8.5c-0.1,1-0.2,1.9-0.3,2.9c-7.5,56.5-4.2,102.6,4.1,139.2c3.3,14.2,7.2,27.2,11.6,38.7c19.8,52.2,47.9,75.7,47.9,75.7c-0.1-0.1-0.2-0.2-0.3-0.4c-0.4-0.4-0.8-0.8-1.2-1.3C63.5,682.2,53.7,667.9,47.4,653.6z"/><path d="M537.9,20c21,26.3,5,78.3-111.7,154.8c-68.6,45-133.1,92.2-133.1,92.2C186.6,345.6,108,415.2,74.4,465.4C57.9,487.7,6.9,569.1,41.2,647.3C51.7,667.9,63,681.8,70,689.7c0.4,0.4,0.8,0.9,1.2,1.3c4.1,4.4,6.6,6.6,6.6,6.6c-84.8-89-16.7-199.4,2.9-225.9c33.6-50.2,112.2-119.9,218.7-198.5c0,0,64.5-47.2,133.1-92.2C559.3,97.9,567.2,43.8,537.9,20z"/></g>
</svg>