<?xml version="1.0" encoding="utf-8"?>
<!-- Svg Vector Icons : http://www.onlinewebfonts.com/icon -->
<!DOCTYPE svg PUBLIC "-//W3C//DTD SVG 1.1//EN" "http://www.w3.org/Graphics/SVG/1.1/DTD/svg11.dtd">
<svg version="1.1" xmlns="http://www.w3.org/2000/svg" xmlns:xlink="http://www.w3.org/1999/xlink" x="0px" y="0px" viewBox="0 0 1000 1000" enable-background="new 0 0 1000 1000" xml:space="preserve">
<metadata> Svg Vector Icons : http://www.onlinewebfonts.com/icon </metadata>
<g><path d="M896,442.9c-51.9,0-94-42-94-93.8c0-7.6,1-15,2.7-22.1c-14.7-6.7-32.5-11.4-49.2-13.2c1.9,12.5,2.9,25.4,2.9,38.4c0,139.9-113.7,253.3-253.9,253.3c-140.2,0-253.8-113.4-253.8-253.3c0-13.2,1-26.3,3-39c-19.6,1.1-41.8,6.6-59.1,15.1c2.2,7.9,3.4,16.2,3.4,24.8c0,51.8-42.1,93.8-94,93.8c-51.9,0-94-42-94-93.8c0-51.8,42.1-93.8,94-93.8c38.2,0,71,22.8,85.8,55.4c20.3-9.7,44.8-15.3,66.7-16.1C281,184.6,382.8,99,504.6,99c122,0,223.8,85.9,248.3,200.3c18.8,1.5,38.9,6.3,56.3,14.1c14.1-34,47.7-58,86.9-58c51.9,0,94,42,94,93.8C990,400.9,947.9,442.9,896,442.9L896,442.9z M137.3,319c-29.8-29.8-33.2-48.7-33.2-48.7s-0.6,23-31.5,53.8c-30.9,30.8-51.7,29.2-51.7,29.2s23.9,5.6,52.2,33.9c28.3,28.3,31,49.1,31,49.1s4.9-23.4,32.2-50.6c27.3-27.2,50.9-32.4,50.9-32.4S167.1,348.7,137.3,319L137.3,319z M504.6,372c-86.4,0-157,67.6-161.6,152.7c43.3,37.6,99.7,64.3,161.6,64.3c61.9,0,118.3-26.8,161.5-64.3C661.6,439.6,591,372,504.6,372L504.6,372z M927.4,319.9c-30.8-30.8-31.5-53.8-31.5-53.8s-3.4,19-33.3,48.8c-29.9,29.8-49.9,34.2-49.9,34.2s23.7,5.2,50.9,32.4c27.3,27.2,32.2,50.6,32.2,50.6s2.6-20.8,31-49.1c28.3-28.2,52.2-33.9,52.2-33.9S958.3,350.7,927.4,319.9L927.4,319.9z M594.8,439.6c14.8,0,26.8,12,26.8,26.7c0,14.8-12,23.4-26.8,23.4c-14.8,0-26.8-8.7-26.8-23.4C568,451.5,580,439.6,594.8,439.6L594.8,439.6z M414.3,487.9c-14.8,0-26.8-8.7-26.8-23.5c0-14.8,12-26.7,26.8-26.7c14.8,0,26.8,12,26.8,26.7C441.1,479.2,429.1,487.9,414.3,487.9L414.3,487.9z M635.1,901c-31.3-16.1-66-26.5-102.6-30.1v-54.3h63.5V787h-63.5v-21.7h63.5v-29.7h-48.5l59.2-92.3c63.8-24.4,116.5-70.9,148.6-130.2c21.8,40.2,44.8,115.7,44.8,164.6C800.1,787.8,750.6,855.5,635.1,901L635.1,901z M463.8,659.5c13.3,1.9,26.9,2.9,40.8,2.9c14.6,0,28.9-1.2,42.9-3.3l-43.2,70.8L463.8,659.5L463.8,659.5z M410.3,765.4H473V787h-62.7v29.6H473v54.6c-35.3,3.9-68.7,14.2-98.9,29.8c-111.5-29.1-164.3-106.6-164.3-216.7c0-48.9,22.2-130.9,44-171.2c32.1,59.2,84.8,105.6,148.3,130.1l56.6,92.4h-48.5L410.3,765.4L410.3,765.4z"/></g>
</svg>