<?xml version="1.0" encoding="utf-8"?>
<!-- Svg Vector Icons : http://www.onlinewebfonts.com/icon -->
<!DOCTYPE svg PUBLIC "-//W3C//DTD SVG 1.1//EN" "http://www.w3.org/Graphics/SVG/1.1/DTD/svg11.dtd">
<svg version="1.1" xmlns="http://www.w3.org/2000/svg" xmlns:xlink="http://www.w3.org/1999/xlink" x="0px" y="0px" viewBox="0 0 1000 1000" enable-background="new 0 0 1000 1000" xml:space="preserve">
<metadata> Svg Vector Icons : http://www.onlinewebfonts.com/icon </metadata>
<g><path d="M716.7,153.8L515,193.7l432.6,468.6L716.7,153.8z"/><path d="M716.7,153.8L990,361.1l-42.4,301.2L716.7,153.8z"/><path d="M515,193.7L374.1,317.6l78.6,95.9l146.8-128.1L515,193.7z"/><path d="M804.2,507l143.4,155.3L686.1,846.2L574.5,686.3L804.2,507z"/><path d="M262.7,243.3l-139.8,25.5l321.2,529l-20.8-328L262.7,243.3z"/><path d="M423.3,469.7l20.8,328l242,48.4L423.3,469.7z"/><path d="M122.9,268.8L26.1,410.9l49.3,85.9l102.8-137L122.9,268.8z"/><path d="M242.7,573.4l-76.1,82.2l62.6,109.1l80-82.5L242.7,573.4z"/><path d="M26.1,410.9l203.1,353.7l-128-33.1L26.1,410.9z"/><path d="M26.1,410.9L10,559.7l91.1,171.9L26.1,410.9z"/></g>
</svg>