<?xml version="1.0" encoding="utf-8"?>
<!-- Svg Vector Icons : http://www.onlinewebfonts.com/icon -->
<!DOCTYPE svg PUBLIC "-//W3C//DTD SVG 1.1//EN" "http://www.w3.org/Graphics/SVG/1.1/DTD/svg11.dtd">
<svg version="1.1" xmlns="http://www.w3.org/2000/svg" xmlns:xlink="http://www.w3.org/1999/xlink" x="0px" y="0px" viewBox="0 0 1000 1000" enable-background="new 0 0 1000 1000" xml:space="preserve">
<metadata> Svg Vector Icons : http://www.onlinewebfonts.com/icon </metadata>
<g><path d="M28.4,40.2L245.8,724l136.1-155.8l-89.7-197.7L421,311.1L28.4,40.2z"/><path d="M17.9,66.8L10,419.6l213.2,291.3L17.9,66.8z"/><path d="M465.6,314.1L977.3,99L498.5,775l-91.6-200.7l158.8-192.2L465.6,314.1z"/><path d="M114.7,605.8l-24.9,99.5L251.9,918l77.9-256.8L242.3,771L114.7,605.8z"/><path d="M440.8,324.7l-124,53.4l79.6,173.4l137.4-163.8L440.8,324.7z"/><path d="M897,551.5l93-439.9L518.9,779.1L897,551.5z"/><path d="M426.5,654.9l35.1,304.9l183.4-205.7l14.6-40.2l-160.9,96.8L426.5,654.9z"/></g>
</svg>