<?xml version="1.0" encoding="utf-8"?>
<!-- Svg Vector Icons : http://www.onlinewebfonts.com/icon -->
<!DOCTYPE svg PUBLIC "-//W3C//DTD SVG 1.1//EN" "http://www.w3.org/Graphics/SVG/1.1/DTD/svg11.dtd">
<svg version="1.1" xmlns="http://www.w3.org/2000/svg" xmlns:xlink="http://www.w3.org/1999/xlink" x="0px" y="0px" viewBox="0 0 1000 1000" enable-background="new 0 0 1000 1000" xml:space="preserve">
<metadata> Svg Vector Icons : http://www.onlinewebfonts.com/icon </metadata>
<g><path d="M435.4,547c-95.8,5.3-181.3,29.6-268.7,68.2c-44.5,19.6-80.9,37.8-85.3,92.5c-4,49.3,26.1,92.5,74.8,103.5c45.5,10.2,84.1-20.4,124.7-35.7c44.4-16.7,88.4-28.4,135.7-33.6c82.9-9.1,69.2-20.2,80.5-93.5C507,583.9,519.9,542.3,435.4,547z"/><path d="M604.6,969.3h24c43.6-8.4,78.9-33.2,85.3-80.2c3.3-24.6-2.8-47.6-6.3-71.6c-3.5-24.4-4.2-52.4-3.5-77.1c0.6-22.4,2.5-50,6.5-72c3.8-21,12.7-50.3,5.8-70.8c-7.1-21.1-28.9-27.9-47.5-35.6c-20.9-8.7-35.7-17.9-55.2-27.5c-61.1-29.9-75.4,11.7-85.1,61.5c-10,51.2-15.7,95.6-16.2,148c-0.4,45.1,2.2,98.4,10.6,142.7C532.2,936.2,557.4,957,604.6,969.3z"/><path d="M611.8,31.6c-52.3,7.5-68.3,54.5-92,93.6c-23,37.9-50.7,72.5-81.2,104.5c-36.3,38.2-78.4,53.2-36.4,115.8c15.5,23.1,20.2,35.6,32.5,58.9c12.8,24.1,33.8,34.4,60.6,26.3c47.3-14.3,152.7-147.4,180.3-192.4c24.4-39.8,57.5-82.7,46.9-132.1c-9.5-44.4-49.6-74.2-93.5-75.6H623C619.3,30.8,615.6,31.1,611.8,31.6z"/><path d="M972.6,445.6c-15.1-23.4-37.2-34.3-74.8-40.7c-46.9-8-91.7-18.9-135.7-37.5c-22.5-9.5-36.2-16.8-57.1-29c-20.6-12.1-43.4-18.9-65.1-4.9c-15.5,10-28.1,31.9-41.6,45.8c-14.5,15-33.5,26.7-41.1,46.8c-19.2,50.6,38,73.3,73.3,91.5c38.3,19.8,81.4,37.5,122.5,50.6c35.4,11.4,108.4,29.4,144.2,29c38.6-0.3,63.3-17.7,78.7-45.5C995.6,516.5,994.7,479.8,972.6,445.6z"/><path d="M171.1,172.1c-49.7,6-83.9,50.3-83,98.8c1.1,53.4,41,74,72.3,110.3c25.1,29.1,57.2,74.2,73.5,108.8c32.3,68.5,40.4,61.2,111.2,45.6c44.1-9.7,110.2-4.4,86.4-76.8c-10.6-32.2-44.5-90.3-63.6-119.6c-23.6-36.2-49.9-71.1-79.4-102.8C254.6,199.8,226.9,165.4,171.1,172.1z"/><path d="M372.5,969.3H398c24.9-5.5,47.7-15.8,63-37.2c19.9-27.8,18.2-44.8,22.3-76.6c10.9-83.1-3.1-101.3-87.5-87.2c-21,3.5-55.4,10.1-74.8,18c-28.5,11.7-28.3,42.3-32.3,68.8C279.9,914.1,314.7,959.4,372.5,969.3z"/><path d="M805.6,172.1c-31.7,3.7-44.7,17-66,38c-15.5,15.3-41.7,37.1-45.6,58.9c-6.5,35.8,13.5,47.4,41.2,61.2c23.7,11.8,47,23.2,72.3,31.6c38.8,12.8,47.5,3.5,73.6-20.9c22.1-20.8,32.7-39.8,33.6-70.9C916,210,864.7,165.2,805.6,172.1z"/><path d="M394.1,30.7h-30.7c-57,12.3-90.5,60.4-77.7,118.5c4.1,18.5,22.7,49.6,32.3,67.2c14.1,25.9,32.7,41.8,64.2,29.8c20.3-7.7,88.7-83.8,95.9-104.6c7.6-22-8.2-55.7-21.3-73.5C441.1,46.5,419.7,36.1,394.1,30.7z"/><path d="M770.1,609.3c-30.7,5.4-34,38.3-37.3,63.3c-4,30.1-6.6,62.1-4.9,92.4c2.9,50.9,84.6,70.4,125.8,51.1c49.7-23.3,73-85.1,45.7-134.4c-13.8-24.9-29.2-34.7-54-47C823,623.6,795.7,604.8,770.1,609.3z"/><path d="M10,479.9V500c6.8,59.7,48.2,92,107.7,88.7c47.8-2.6,136.1-15,94.5-85.4c-12.8-21.7-23.2-39.9-37.8-60.7C161,423.4,148,397.8,123,395.4C63.2,389.7,23.1,423.3,10,479.9z"/></g>
</svg>